<svg xmlns="http://www.w3.org/2000/svg" xmlns:xlink="http://www.w3.org/1999/xlink" style="vertical-align:-3.005ex" width="36.871ex" height="6.884ex" viewBox="0 -1670.4 15874.8 2964.1"><defs><path id="j" stroke-width="1" d="M121 647q0 10 4 23t12 13q1 0 72 5t73 6q12 0 12-8 0-7-50-209-50-198-50-205 19 10 29 19 24 18 69 63t70 61q40 27 76 27 30 0 47-19t18-54q0-25-7-42t-19-25-21-11-18-3q-20 0-32 11t-12 29q0 25 16 41t32 21l16 3q-12 12-24 12h-4q-32-3-63-25t-73-64-66-61q2-1 15-3t24-6 26-8 27-14 22-18 17-26 6-33q0-17-5-41t-6-40q0-40 27-40 48 0 78 119 2 8 20 8h4q16 0 16-9 0-5-3-14Q455-11 378-11q-45 0-73 26t-28 75q0 18 3 31t3 24q0 22-14 38t-35 23-34 11-18 3h-2q-12-42-21-81t-14-58-9-37-7-24-7-13-11-9q-13-9-28-9-17 0-26 10t-9 17q0 10 37 160t73 295l37 145q1 13-7 16t-39 5h-18q-3 0-7 3t-3 7z"/><path id="a" stroke-width="1" d="M213 578l-13-5q-14-5-40-10t-58-7H83v46h19q47 2 87 15t56 24 28 22q2 3 12 3 9 0 17-6V361l1-300q7-7 12-9t24-4 62-2h26V0h-11q-21 3-159 3-136 0-157-3H88v46h64q16 0 25 1t16 3 8 2 6 5 6 4v517z"/><path id="c" stroke-width="1" d="M56 347q0 13 14 20h637q15-8 15-20 0-11-14-19l-318-1H72q-16 5-16 20zm0-194q0 15 16 20h636q14-10 14-20 0-13-15-20H70q-14 7-14 20z"/><path id="d" stroke-width="1" d="M109 429q-27 0-43 18t-16 44q0 71 53 123t132 52q91 0 152-56t62-145q0-43-20-82t-48-68-80-74q-36-31-100-92l-59-56 76-1q157 0 167 5 7 2 24 89v3h40v-3q-1-3-13-91T421 3V0H50v31q0 7 6 15t30 35q29 32 50 56 9 10 34 37t34 37 29 33 28 34 23 30 21 32 15 29 13 32 7 30 3 33q0 63-34 109t-97 46q-33 0-58-17t-35-33-10-19q0-1 5-1 18 0 37-14t19-46q0-25-16-42t-45-18z"/><path id="e" stroke-width="1" d="M95 178q-6 0-14 8t-9 14 31 30 66 50 38 29q2 2 5 2h1q6 0 14-17t54-117q19-43 31-69l85-185q1 0 104 213t206 429 107 221q6 14 20 14 7 0 12-6t7-12v-6L620 293 385-193q-4-7-19-7-9 0-12 3-2 2-98 212l-96 210-16-11q-15-12-31-24t-18-12z"/><path id="f" stroke-width="1" d="M352 287q-48-76-120-76-78 0-128 59T44 396q-2 16-2 40v8q0 93 69 162 60 60 132 60h6q4 0 8-1h4q12 0 25-2t37-12 47-32 43-59q43-88 43-226 0-140-60-237-35-56-84-87T208-22q-61 0-100 29T68 93t53 56q22 0 37-14t15-39q0-18-9-31t-16-16-13-5l-4-1q0-2 7-6t26-10 42-5h6q60 0 101 64 39 56 39 194v7zm-108-39q48 0 77 49t30 133q0 78-8 112-2 10-6 20t-14 26-30 27-47 10q-38 0-65-27-21-22-27-52t-7-105q0-83 5-112t20-47q25-34 72-34z"/><path id="g" stroke-width="1" d="M70 417v77l54 124 124 48q71 0 126-42t55-109q0-30-11-56t-26-42-31-28-26-18-11-8l14-9 28-20q14-10 16-11 75-59 75-149 0-79-58-137T249-22q-90 0-148 51T43 155q0 108 129 180l-18 13q-21 13-27 20-57 49-57 126zm216-31l6 4 9 6q3 2 10 7t12 10 11 12 11 13 10 16 9 17 5 20 2 22q0 43-29 73t-67 38q-7 1-33 1-41 0-77-26t-37-65q0-23 13-42t26-29 50-32q7-5 11-7l58-38zM250 21q58 0 100 34t42 82q0 17-5 32t-12 25-22 22-23 18-29 19-27 17q-14 9-30 19t-26 17l-8 5q-6 0-29-17t-48-55-26-82q0-59 43-97t100-39z"/><path id="h" stroke-width="1" d="M96 585q56 81 153 81 48 0 96-26t78-92q37-83 37-228 0-155-43-237-20-42-55-67t-61-31-51-7q-26 0-52 6t-61 32-55 67q-43 82-43 237 0 174 57 265zm225 12q-30 32-71 32-42 0-72-32-25-26-33-72t-8-192q0-158 8-208t36-79q28-30 69-30 40 0 68 30 29 30 36 84t8 203q0 145-8 191t-33 73z"/><path id="i" stroke-width="1" d="M60 948q3 2 605 2h602l58-135q59-138 63-146h-40l-7 14q-21 41-56 78-50 48-111 77t-141 43-151 17-183 4H251l8-11q463-633 465-639 1-2 0-6-3-3-264-302L196-356q0-1 211-1h141q89 0 128-1 136 0 220 5t167 21 141 49 103 87q21 26 41 72h40q0-1-7-21t-25-65-31-84l-58-155-601-1q-602 0-605 2-6 2-6 9 0 2 2 6l533 610q0 1-33 45T452 366 322 544L56 909l-1 15q0 21 5 24z"/><path id="b" stroke-width="1" d="M132-11q-34 0-34 33v11l13 28q75 158 109 273l8 24h-32q-38 0-54-3t-39-19q-11-7-22-18t-19-21-9-12q-2-1-15-1-19 0-19 10 0 6 19 35t55 62 71 38q7 2 225 2 160 0 164-1 20-7 20-28 0-31-32-42-6-2-69-2h-64l-3-17q-12-72-12-119 0-52 9-93t19-64 10-28q0-17-14-32t-36-15q-11 0-18 3t-16 24-16 60q-1 9-1 44 0 49 9 105t18 92 10 40h-98l-1-4q0-3-19-79t-43-161-31-97q-11-28-43-28z"/><path id="k" stroke-width="1" d="M55 217q0 88 56 156t143 69q88 0 165-61 38-31 74-78l14-19 7 10q104 148 233 148 86 0 141-68t56-160q0-86-55-155T743-11q-86 0-163 61-38 31-74 78l-14 19-7-10Q381-11 252-11q-86 0-141 68T55 217zm852 0q0 68-38 124t-108 56q-21 0-41-5t-38-14-34-19-29-24-25-25-20-25-15-22-11-17l-5-8 31-40q31-40 48-60t42-44 50-33 51-10q62 0 102 49t40 117zm-815-3q0-69 39-125t108-56q118 0 217 160l-31 40q-61 79-91 104-49 43-101 43-62 0-101-49T92 214z"/><path id="l" stroke-width="1" d="M94 250q0 69 10 131t23 107 37 88 38 67 42 52 33 34 25 21h17q14 0 14-9 0-3-17-21t-41-53-49-86-42-138-17-193 17-192 41-139 49-86 42-53 17-21q0-9-15-9h-16l-28 24q-94 85-137 212T94 250z"/><path id="m" stroke-width="1" d="M462 0q-18 3-129 3-116 0-134-3h-9v46h58q7 0 17 2t14 5 7 8q1 2 1 54v50H28v46l151 231q153 232 155 233 2 2 21 2h18l6-6V211h92v-46h-92v-51-48q0-7 6-12 8-7 57-8h29V0h-9zM293 211v334L74 212l109-1h110z"/><path id="n" stroke-width="1" d="M60 749l4 1h22l28-24q94-85 137-212t43-264q0-68-10-131T261 12t-37-88-38-67-41-51-32-33-23-19l-4-4H63q-3 0-5 3t-3 9q1 1 11 13Q221-64 221 250T66 725q-10 12-11 13 0 8 5 11z"/><path id="o" stroke-width="1" d="M78 661q0 21 18 38t42 17 42-16 19-39q0-7-20-229t-21-226q-2-8-19-8-18 0-20 8-1 3-21 225T78 661zm1-600q0 28 18 44t44 16q23-2 40-17t17-43q0-30-17-45T139 1q-25 0-42 15T79 61z"/><path id="p" stroke-width="1" d="M127 463q-27 0-42 17t-16 44q0 55 48 98t116 43q35 0 44-1 74-12 113-53t40-89q0-52-34-101t-94-71l-3-2q0-1 9-3t29-9 38-21q82-53 82-140 0-79-62-138T238-22q-80 0-138 43T42 130q0 28 18 45t45 18q28 0 46-18t18-45q0-11-3-20t-7-16-11-12-12-8-10-4-8-3l-4-1q51-45 124-45 55 0 83 53 17 33 17 101v20q0 95-64 127-15 6-61 7l-42 1-3 2q-2 3-2 16 0 18 8 18 28 0 58 5 34 5 62 42t28 112v8q0 57-35 79-22 14-47 14-32 0-59-11t-38-23-11-12h3q3-1 8-2t10-5 12-7 10-11 8-15 3-20q0-22-14-39t-45-18z"/><path id="q" stroke-width="1" d="M56 237v13l14 20h299v150l1 150q10 13 19 13 13 0 20-15V270h298q15-8 15-20t-15-20H409V-68q-8-14-18-14h-4q-12 0-18 14v298H70q-14 7-14 20z"/><path id="r" stroke-width="1" d="M42 313q0 163 81 258t180 95q69 0 99-36t30-80q0-25-14-40t-39-15q-23 0-38 14t-15 39q0 44 47 53-22 22-62 25-71 0-117-60-47-66-47-202l1-4q5 6 8 13 41 60 107 60h4q46 0 81-19 24-14 48-40t39-57q21-49 21-107v-18q0-23-5-43-11-59-64-115T253-22q-28 0-54 8t-56 30-51 59-36 97-14 141zm215 84q-30 0-52-17t-34-45-17-57-6-62q0-83 12-119t38-58q24-18 53-18 51 0 78 38 13 18 18 45t5 105q0 80-5 107t-18 45q-27 36-72 36z"/></defs><g fill="currentColor" stroke="currentColor" stroke-width="0" transform="scale(1 -1)"><g transform="translate(120)"><path stroke="none" d="M0 220h693v60H0z"/><use x="96" y="676" xlink:href="#a"/><use x="60" y="-686" xlink:href="#b"/></g><use x="1211" xlink:href="#c"/><path stroke="none" d="M2386 220h2122v60H2386z"/><g transform="translate(2529 676)"><use xlink:href="#d"/><g transform="translate(500)"><use y="52" xlink:href="#e"/><path stroke="none" d="M833 793h500v60H833z"/><use x="833" xlink:href="#d"/></g></g><g transform="translate(2446 -686)"><use xlink:href="#f"/><use x="500" xlink:href="#g"/><use x="1001" xlink:href="#h"/><use x="1501" xlink:href="#a"/></g><g transform="translate(4796)"><use xlink:href="#i"/><g transform="matrix(.707 0 0 .707 85 -1110)"><use xlink:href="#j"/><use x="521" xlink:href="#c"/><use x="1300" xlink:href="#h"/></g><use x="521" y="1627" transform="scale(.707)" xlink:href="#k"/></g><g><path stroke="none" d="M6526 220h9227v60H6526z"/><g transform="translate(6586 725)"><use xlink:href="#l"/><use x="389" xlink:href="#m"/><use x="890" xlink:href="#j"/><use x="1411" xlink:href="#n"/><use x="1801" xlink:href="#o"/><use x="2079" xlink:href="#l"/><g transform="translate(2469)"><use xlink:href="#a"/><use x="500" xlink:href="#a"/><use x="1001" xlink:href="#h"/><use x="1501" xlink:href="#p"/></g><use x="4693" xlink:href="#q"/><g transform="translate(5693)"><use xlink:href="#d"/><use x="500" xlink:href="#r"/><use x="1001" xlink:href="#p"/><use x="1501" xlink:href="#f"/><use x="2002" xlink:href="#h"/></g><use x="8196" xlink:href="#j"/><use x="8717" xlink:href="#n"/></g><g transform="translate(8961 -860)"><use xlink:href="#l"/><use x="389" xlink:href="#j"/><use x="911" xlink:href="#o"/><g transform="translate(1189)"><use xlink:href="#n"/><use x="550" y="408" transform="scale(.707)" xlink:href="#m"/></g><g transform="translate(2032)"><use xlink:href="#p"/><use x="500" xlink:href="#f"/><use x="1001" xlink:href="#r"/><g transform="matrix(.707 0 0 .707 1501 393)"><use xlink:href="#m"/><use x="500" xlink:href="#j"/></g></g></g></g></g></svg>